<svg width="278" height="36" viewBox="0 0 278 36" fill="none" xmlns="http://www.w3.org/2000/svg">
<rect width="36" height="36" rx="18" fill="#F2F4F7"/>
<path d="M13.938 16.461V19.461H16.188V24.711H19.188V19.461H21.438L22.188 16.461H19.188V14.961C19.188 14.7621 19.267 14.5713 19.4077 14.4307C19.5483 14.29 19.7391 14.211 19.938 14.211H22.188V11.211H19.938C18.9434 11.211 17.9896 11.6061 17.2863 12.3093C16.5831 13.0126 16.188 13.9664 16.188 14.961V16.461H13.938Z" stroke="#282828" stroke-width="1.125" stroke-linecap="round" stroke-linejoin="round"/>
<rect x="52" width="36" height="36" rx="18" fill="#F2F4F7"/>
<path fill-rule="evenodd" clip-rule="evenodd" d="M67.2422 12.5236C65.896 12.5236 64.8047 13.6149 64.8047 14.9611V20.9611C64.8047 22.3073 65.896 23.3986 67.2422 23.3986H73.2422C74.5884 23.3986 75.6797 22.3073 75.6797 20.9611V14.9611C75.6797 13.6149 74.5884 12.5236 73.2422 12.5236H67.2422ZM63.6797 14.9611C63.6797 12.9935 65.2747 11.3986 67.2422 11.3986H73.2422C75.2097 11.3986 76.8047 12.9935 76.8047 14.9611V20.9611C76.8047 22.9286 75.2097 24.5236 73.2422 24.5236H67.2422C65.2747 24.5236 63.6797 22.9286 63.6797 20.9611V14.9611ZM70.2422 16.2736C69.3102 16.2736 68.5547 17.0291 68.5547 17.9611C68.5547 18.893 69.3102 19.6486 70.2422 19.6486C71.1742 19.6486 71.9297 18.893 71.9297 17.9611C71.9297 17.0291 71.1742 16.2736 70.2422 16.2736ZM67.4297 17.9611C67.4297 16.4078 68.6889 15.1486 70.2422 15.1486C71.7955 15.1486 73.0547 16.4078 73.0547 17.9611C73.0547 19.5144 71.7955 20.7736 70.2422 20.7736C68.6889 20.7736 67.4297 19.5144 67.4297 17.9611ZM74.1797 14.5861C74.1797 14.2754 73.9278 14.0236 73.6172 14.0236C73.3065 14.0236 73.0547 14.2754 73.0547 14.5861V14.5871C73.0547 14.8977 73.3065 15.1496 73.6172 15.1496C73.9278 15.1496 74.1797 14.8977 74.1797 14.5871V14.5861Z" fill="#282828"/>
<rect x="104" width="36" height="36" rx="18" fill="#F2F4F7"/>
<path d="M129.228 11.9295C128.478 12.297 127.743 12.4463 126.978 12.672C126.137 11.7233 124.89 11.6708 123.693 12.1193C122.495 12.5678 121.71 13.6643 121.728 14.922V15.672C119.294 15.7343 117.126 14.6258 115.728 12.672C115.728 12.672 112.591 18.2468 118.728 20.922C117.324 21.8573 115.923 22.488 114.228 22.422C116.709 23.7743 119.412 24.2393 121.753 23.5598C124.438 22.7798 126.645 20.7675 127.491 17.7533C127.744 16.8365 127.869 15.8894 127.864 14.9385C127.863 14.7518 128.997 12.8595 129.228 11.9288V11.9295Z" stroke="#282828" stroke-width="1.125" stroke-linecap="round" stroke-linejoin="round"/>
</svg>
